<svg xmlns="http://www.w3.org/2000/svg" viewBox="0 0 49 73" width="49" height="73">
	<defs>
		<linearGradient id="grd1" gradientUnits="userSpaceOnUse"  x1="24.5" y1="71.996" x2="24.5" y2="1.989">
			<stop offset="0" stop-color="#4e1193"  />
			<stop offset="1" stop-color="#6f23ae"  />
		</linearGradient>
	</defs>
	<style>
		tspan { white-space:pre }
		.shp0 { fill: url(#grd1) } 
	</style>
	<g id="Map">
		<g id="Pin">
			<path id="Shape 8" class="shp0" d="M24.5 72L3.85 33.32C2.66 30.59 2 27.58 2 24.41C2 12.03 12.07 1.99 24.5 1.99C36.93 1.99 47 12.03 47 24.41C47 27.66 46.31 30.75 45.06 33.53L24.5 72ZM24.5 12.76C18.54 12.76 13.7 17.57 13.7 23.52C13.7 29.46 18.54 34.28 24.5 34.28C30.46 34.28 35.3 29.46 35.3 23.52C35.3 17.57 30.46 12.76 24.5 12.76Z" />
		</g>
	</g>
</svg>